<svg width="24" height="24" viewBox="0 0 24 24" fill="none" xmlns="http://www.w3.org/2000/svg">
    <path opacity="0.75" fill-rule="evenodd" clip-rule="evenodd"
        d="M8 6C6.34315 6 5 7.34315 5 9V17C5 15.3431 6.34315 14 8 14H16C17.6569 14 19 15.3431 19 17V9C19 7.34315 17.6569 6 16 6H8Z"
        fill="#FF9500"></path>
    <path opacity="0.5"
        d="M5 17C5 15.3431 6.34315 14 8 14H16C17.6569 14 19 15.3431 19 17V19C19 20.6569 17.6569 22 16 22H8C6.34315 22 5 20.6569 5 19V17Z"
        fill="#FF9500"></path>
    <path fill-rule="evenodd" clip-rule="evenodd"
        d="M8 6C8 3.79086 9.79086 2 12 2C14.2091 2 16 3.79086 16 6H14C14 4.89543 13.1046 4 12 4C10.8954 4 10 4.89543 10 6H8ZM5 11.1709C3.83481 11.5827 3 12.694 3 14.0002V18.0002C3 19.1048 3.89543 20.0002 5 20.0002H5.17071C5.06015 19.6874 5 19.3508 5 19.0002V11.1709ZM18.8293 20.0002H19C20.1046 20.0002 21 19.1048 21 18.0002V14.0002C21 12.694 20.1652 11.5827 19 11.1709V19.0002C19 19.3508 18.9398 19.6874 18.8293 20.0002ZM11 8C10.4477 8 10 8.44772 10 9V10C10 10.5523 10.4477 11 11 11H13C13.5523 11 14 10.5523 14 10V9C14 8.44772 13.5523 8 13 8H11Z"
        fill="#FF9500"></path>
</svg>