<svg width="24" height="24" viewBox="0 0 24 24" fill="none" xmlns="http://www.w3.org/2000/svg">
    <path opacity="0.75" fill-rule="evenodd" clip-rule="evenodd"
        d="M7.99963 3H5V20C5 20.5523 5.44772 21 6 21H18C18.5523 21 19 20.5523 19 20V3H16.0004C15.0882 4.21445 13.6358 5 12 5C10.3642 5 8.91184 4.21445 7.99963 3Z"
        fill="#1AB2FF"></path>
    <path fill-rule="evenodd" clip-rule="evenodd"
        d="M1.89431 4.55279L4.99989 3V9.25L4.39431 9.55279C3.90033 9.79978 3.29966 9.59955 3.05267 9.10557L1.4471 5.89443C1.20011 5.40045 1.40034 4.79978 1.89431 4.55279ZM22.1053 4.55279L18.9998 3V9.25L19.6053 9.55279C20.0993 9.79978 20.7 9.59955 20.947 9.10557L22.5525 5.89443C22.7995 5.40045 22.5993 4.79978 22.1053 4.55279Z"
        fill="#1AB2FF"></path>
</svg>