<svg width="24" height="24" viewBox="0 0 24 24" fill="none" xmlns="http://www.w3.org/2000/svg">
    <path opacity="0.75" fill-rule="evenodd" clip-rule="evenodd"
        d="M7 18C5.89543 18 5 18.8954 5 20V22H19V20C19 18.8954 18.1046 18 17 18H7ZM12 21C12.5523 21 13 20.5523 13 20C13 19.4477 12.5523 19 12 19C11.4477 19 11 19.4477 11 20C11 20.5523 11.4477 21 12 21Z"
        fill="#6226D9"></path>
    <path opacity="0.25"
        d="M13 20C13 20.5523 12.5523 21 12 21C11.4477 21 11 20.5523 11 20C11 19.4477 11.4477 19 12 19C12.5523 19 13 19.4477 13 20Z"
        fill="#6226D9"></path>
    <path opacity="0.5" fill-rule="evenodd" clip-rule="evenodd"
        d="M5 3C3.89543 3 3 3.89543 3 5V10C3 11.1046 3.89543 12 5 12H7V17H17L19 3H7H5ZM7 5H5V10H7V5Z"
        fill="#6226D9"></path>
    <path fill-rule="evenodd" clip-rule="evenodd"
        d="M17.8571 11L17.7143 12H12V11H17.8571ZM18.2857 8L18.1429 9H12V8H18.2857ZM18.7143 5L18.5714 6H12V5H18.7143Z"
        fill="#6226D9"></path>
</svg>