<svg width="24" height="24" viewBox="0 0 24 24" fill="none" xmlns="http://www.w3.org/2000/svg">
    <path opacity="0.5" fill-rule="evenodd" clip-rule="evenodd"
        d="M6.57651 4C6.27224 4 6.0385 4.26949 6.08154 4.57071L7.93868 17.5707C7.97387 17.817 8.18483 18 8.43365 18H15.5664C15.8152 18 16.0261 17.817 16.0613 17.5707L17.1429 10H6.85725L6.57153 8H17.4286L17.9185 4.57071C17.9615 4.26949 17.7278 4 17.4235 4H6.57651Z"
        fill="#FF3388"></path>
    <path opacity="0.75" fill-rule="evenodd" clip-rule="evenodd"
        d="M6.85725 10L6.57153 8H17.4287L17.143 10H6.85725Z" fill="#FF3388"></path>
    <path d="M9 18H15V20.5C15 21.3284 14.3284 22 13.5 22H10.5C9.67157 22 9 21.3284 9 20.5V18Z"
        fill="#FF3388"></path>
</svg>