<svg width="24" height="24" viewBox="0 0 24 24" fill="none" xmlns="http://www.w3.org/2000/svg">
    <path
        d="M2.00488 16.2129C2.3949 16.3047 2.79664 16.3939 3.50463 16.5171C4.92167 16.7635 6.89216 17.0097 9.10646 17.0097H21.6064C21.6064 17.5619 21.1587 18.0097 20.6064 18.0097H9.10646C6.82076 18.0097 4.79125 17.7558 3.33329 17.5023C2.60379 17.3754 2.41174 17.293 2.00488 17.1973V16.2129Z"
        fill="#FF1919"></path>
    <path opacity="0.25"
        d="M3.33305 16.5024C4.79101 16.7559 6.82052 17.0098 9.10622 17.0098H21.6064V15.0098C15.362 15.0098 9.72082 16.5983 3.50439 15.5172C2.79639 15.394 2.21582 15.2598 2.21582 15.2598L2.00879 16.2168C2.41565 16.3125 2.60354 16.3755 3.33305 16.5024Z"
        fill="#FF1919"></path>
    <path opacity="0.75" fill-rule="evenodd" clip-rule="evenodd"
        d="M2.21143 15.264C2.34012 14.784 2.60579 14.2594 3.10651 14.0091L3.10651 14.0099C3.10651 14.1765 3.50651 14.5099 5.10651 14.5099H8.36854C8.72227 14.5099 8.9636 14.1526 8.83223 13.8242L8.13284 12.0757C10.5602 11.1222 12.9662 10.0704 13.1065 9.50906C13.6065 7.50928 14.6065 6.50905 15.1065 6.00906C15.7649 5.35063 17.3464 6.55712 18.1965 7.20561L18.1965 7.20562L18.1965 7.20564C18.3671 7.33578 18.5082 7.44345 18.6065 7.50906C18.807 7.64287 19.1354 7.81662 19.4893 8.00383C20.2406 8.40125 21.1065 8.85934 21.1065 9.12486C21.1065 9.27507 21.1805 9.66244 21.2715 10.1392L21.2715 10.1392L21.2715 10.1393C21.4172 10.9021 21.6065 11.8939 21.6065 12.5093V15.0131C19.4405 15.0415 17.2863 15.2476 15.1366 15.4534H15.1366C11.2596 15.8244 7.3969 16.1941 3.50464 15.5172C2.99707 15.4289 2.56122 15.3407 2.21143 15.264ZM18 14C19.1046 14 20 13.1046 20 12C20 10.8954 19.1046 10 18 10C16.8954 10 16 10.8954 16 12C16 13.1046 16.8954 14 18 14Z"
        fill="#FF1919"></path>
    <path opacity="0.25"
        d="M5.10645 14.5097C3.50645 14.5097 3.10645 14.1764 3.10645 14.0097L8.13379 12.0796L8.83195 13.8239C8.96341 14.1523 8.72208 14.5097 8.3683 14.5097H5.10645Z"
        fill="#FF1919"></path>
    <path opacity="0.25"
        d="M20 12C20 13.1046 19.1046 14 18 14C16.8954 14 16 13.1046 16 12C16 10.8954 16.8954 10 18 10C19.1046 10 20 10.8954 20 12Z"
        fill="#FF1919"></path>
</svg>